<?xml version="1.0" encoding="utf-8"?>
<!-- Generator: Adobe Illustrator 27.2.0, SVG Export Plug-In . SVG Version: 6.00 Build 0)  -->
<svg version="1.1" id="Layer_1" xmlns="http://www.w3.org/2000/svg" xmlns:xlink="http://www.w3.org/1999/xlink" x="0px" y="0px"
	 viewBox="0 0 1000 1000" style="enable-background:new 0 0 1000 1000;" xml:space="preserve">
<style type="text/css">
	.st0{font-family:'ArialMT';}
	.st1{font-size:101.7px;}
</style>
<g transform="translate(500 500) scale(5.65 5.65)">
	<g transform="translate(-28.23 66.32) rotate(-160.54)">
		<text transform="matrix(0.177 0 0 0.177 -5.0297 5.6495)" class="st0 st1">F</text>
	</g>
	<g transform="translate(-43.23 57.39) rotate(-146.17)">
		<text transform="matrix(0.177 0 0 0.177 -4.9795 5.6509)" class="st0 st1">U</text>
	</g>
	<g transform="translate(-55.37 45.25) rotate(-131.88)">
		<text transform="matrix(0.177 0 0 0.177 -4.7299 5.6508)" class="st0 st1">L</text>
	</g>
	<g transform="translate(-64.61 29.78) rotate(-117.94)">
		<text transform="matrix(0.177 0 0 0.177 -5.7605 5.6496)" class="st0 st1">L</text>
	</g>
	<g transform="translate(-69.48 12.4) rotate(-102.53)">
		<text transform="matrix(0.177 0 0 0.177 -5.0095 5.6508)" class="st0 st1"> </text>
	</g>
	<g transform="translate(-69.85 -5.12) rotate(-88.18)">
		<text transform="matrix(0.177 0 0 0.177 -5.0606 5.6496)" class="st0 st1">S</text>
	</g>
	<g transform="translate(-65.78 -22.49) rotate(-73.78)">
		<text transform="matrix(0.177 0 0 0.177 -5.35 5.6503)" class="st0 st1">T</text>
	</g>
	<g transform="translate(-57.08 -38.79) rotate(-58.96)">
		<text transform="matrix(0.177 0 0 0.177 -5.7603 5.6501)" class="st0 st1">A</text>
	</g>
	<g transform="translate(-44.84 -51.77) rotate(-43.54)">
		<text transform="matrix(0.177 0 0 0.177 -4.8092 5.6508)" class="st0 st1">C</text>
	</g>
	<g transform="translate(-32.16 -60.01) rotate(-29.5)">
		<text transform="matrix(0.177 0 0 0.177 -2.8095 5.6509)" class="st0 st1">K</text>
	</g>
	<g transform="translate(-15.58 -66.32) rotate(-18.31)">
		<text transform="matrix(0.177 0 0 0.177 -6.9302 5.6497)" class="st0 st1"> </text>
	</g>
	<g transform="translate(3.63 -67.77) rotate(-1.22)">
		<text transform="matrix(0.177 0 0 0.177 -13.8999 5.4674)" class="st0 st1">W</text>
	</g>
	<g transform="translate(21.44 -64.45) rotate(13.59)">
		<g>
			<text transform="matrix(0.177 0 0 0.177 -10.3114 5.0051)" class="st0 st1">E</text>
		</g>
	</g>
	<g transform="translate(35.56 -57.88) rotate(28.49)">
		<text transform="matrix(0.177 0 0 0.177 -9.8434 4.3193)" class="st0 st1">B</text>
	</g>
	<g transform="translate(48.06 -48.52) rotate(39.68)">
		<text transform="matrix(0.176 1.835903e-02 -1.835903e-02 0.176 -3.4336 4.982)" class="st0 st1">D</text>
	</g>
	<g transform="translate(59.24 -34.85) rotate(53.72)">
		<text transform="matrix(0.177 0 0 0.177 -5.35 5.6507)" class="st0 st1">E</text>
	</g>
	<g transform="translate(66.5 -18.98) rotate(68.54)">
		<text transform="matrix(0.177 0 0 0.177 -4.7397 5.6507)" class="st0 st1">V</text>
	</g>
	<g transform="translate(69.71 -1.66) rotate(82.5)">
		<text transform="matrix(0.177 0 0 0.177 -5.3503 5.65)" class="st0 st1">E</text>
	</g>
	<g transform="translate(68.48 15.39) rotate(97.32)">
		<text transform="matrix(0.177 0 0 0.177 -4.3699 5.6498)" class="st0 st1">L</text>
	</g>
	<g transform="translate(63.41 31.31) rotate(110.74)">
		<text transform="matrix(0.177 0 0 0.177 -4.7303 5.6491)" class="st0 st1">O</text>
	</g>
	<g transform="translate(54.52 45.76) rotate(124.69)">
		<text transform="matrix(0.177 0 0 0.177 -4.7102 5.6499)" class="st0 st1">P</text>
	</g>
	<g transform="translate(41.96 58.06) rotate(138.59)">
		<text transform="matrix(0.177 0 0 0.177 -5.3504 5.649)" class="st0 st1">E</text>
	</g>
	<g transform="translate(26.58 66.83) rotate(153.41)">
		<text transform="matrix(0.177 0 0 0.177 -4.9801 5.65)" class="st0 st1">R</text>
	</g>
</g>
</svg>
